<svg xmlns="http://www.w3.org/2000/svg" viewBox="0 0 448 512" role="img" aria-label="WhatsApp logo">
  <path fill="#25D366" d="M380.9 97.1C339 55.1 283.2 32 223.9 32C101.5 32 2.2 131.3 2.2 253.7c0 39.1 10.2 77.3 29.6 111L0 480l118.7-31.1c32.6 17.8 69.4 27.2 106.5 27.2h.1c122.3 0 221.7-99.3 221.7-221.7c0-59.3-23.1-115-65.1-157.3zM223.9 438.7c-33.3 0-66-8.9-94.6-25.7l-6.8-4l-70.4 18.5l18.8-68.6l-4.4-7c-18.5-29.4-28.2-63.4-28.2-98.2c0-101.7 82.8-184.5 184.6-184.5c49.3 0 95.6 19.2 130.4 54.1c34.8 34.9 54.1 81.2 54.1 130.4c-.1 101.8-82.9 184.6-184.5 184.6zm101.1-138.2c-5.5-2.8-32.8-16.1-37.9-17.9c-5.1-1.9-8.8-2.8-12.5 2.8c-3.7 5.6-14.3 17.9-17.6 21.5c-3.2 3.7-6.5 4.2-12 1.4c-32.6-16.3-54-29.1-75.5-66c-5.7-9.8 5.7-9.1 16.3-30.3c1.8-3.7.9-6.9-.5-9.7c-1.4-2.8-12.5-30.1-17.1-41.3c-4.5-10.8-9-9.3-12.5-9.5c-3.2-.2-6.9-.2-10.6-.2c-3.7 0-9.7 1.4-14.8 6.9c-5.1 5.6-19.4 19-19.4 46.3c0 27.3 19.9 53.7 22.6 57.4c2.8 3.7 39.1 59.7 94.8 83.8c35.1 15.2 48.8 16.5 66.3 13.9c10.7-1.6 32.8-13.4 37.4-26.4c4.6-12.9 4.6-24 3.2-26.4c-1.3-2.4-5-3.7-10.5-6.5z"/>
</svg>
